<svg width="567" height="390" viewBox="0 0 567 390" fill="none" xmlns="http://www.w3.org/2000/svg">
<g filter="url(#filter0_d_1_30)">
<path d="M52.9192 341.888C65.2662 333.805 68.4025 318.322 68.2738 304.293C68.2738 301.958 68.5706 299.504 67.4923 297.427C66.4139 295.349 63.8317 293.895 61.6848 294.825C59.9139 295.596 59.1026 297.595 58.0737 299.237C56.7019 301.436 54.7367 303.202 52.4048 304.332C50.8812 305.064 49.0113 305.49 47.5471 304.649C45.5684 303.491 45.3606 300.691 45.4299 298.386C45.5684 294.06 45.7003 289.736 45.8256 285.416C46.0284 283.094 45.8479 280.754 45.2914 278.491C44.9963 277.37 44.4373 276.336 43.6611 275.475C42.8849 274.615 41.9139 273.953 40.8294 273.544C38.6034 272.871 35.8134 274.078 35.2792 276.334C35.1684 277.293 35.1222 278.258 35.1407 279.223C35.1427 279.707 35.0008 280.181 34.733 280.584C34.4653 280.987 34.0838 281.302 33.6369 281.488C33.1506 281.533 32.661 281.453 32.2143 281.256C31.7676 281.058 31.3787 280.75 31.0844 280.36C28.8319 277.842 27.0071 274.971 25.6826 271.862C24.36 268.758 22.6729 265.822 20.6567 263.116C18.5197 260.504 15.522 258.407 12.1582 258.169C8.79445 257.932 5.16355 259.871 4.24346 263.116C3.32337 266.361 5.16355 269.735 7.2115 272.426C10.2424 276.438 13.838 279.99 17.8865 282.972C18.6748 283.427 19.2983 284.119 19.6673 284.951C20.1323 286.514 18.6087 288.008 17.0555 288.483C15.2845 289.017 13.385 288.79 11.5547 288.958C9.72443 289.126 7.70616 289.878 6.97405 291.57C5.9847 293.924 7.90403 296.457 9.83325 298.129C13.7246 301.494 18.1611 304.17 22.952 306.044C24.7186 306.572 26.3746 307.417 27.8393 308.537C29.2046 309.764 29.9961 311.871 29.1156 313.484C28.2351 315.096 26.0585 315.571 24.248 315.195C22.5022 314.675 20.8043 314.007 19.1727 313.197C15.9672 311.921 11.7922 312.039 9.65517 314.75C8.99529 315.676 8.56199 316.744 8.39016 317.867C8.21832 318.991 8.31274 320.14 8.66583 321.22C9.40478 323.37 10.569 325.348 12.089 327.038C17.0779 333.247 23.6213 338.026 31.0547 340.889C38.4847 343.639 45.42 344.5 52.9291 341.987" fill="#EE4248"/>
<path d="M7.70616 260.059L7.9337 260.287L8.61635 260.91C9.21985 261.464 10.1004 262.275 11.2183 263.354C14.3732 266.393 17.2966 269.663 19.9641 273.138C21.6559 275.325 23.4169 277.808 25.2571 280.499C27.0973 283.19 29.0265 286.099 30.9558 289.215C32.9904 292.46 34.8434 295.816 36.506 299.267C37.3766 301.058 38.1384 302.937 38.9101 304.847C39.6818 306.756 40.4732 308.695 41.2647 310.664C44.2979 318.016 46.9106 325.534 49.0904 333.182C50.8446 339.436 52.0007 345.843 52.5432 352.316C52.898 356.679 52.8649 361.066 52.4443 365.424C52.286 366.958 52.1376 368.155 52.009 368.966C51.9496 369.352 51.9101 369.659 51.8705 369.886C51.8638 369.992 51.8638 370.097 51.8705 370.203C51.9038 370.103 51.9303 370 51.9496 369.896C51.9496 369.669 52.0486 369.362 52.1178 368.976C52.2761 368.175 52.4542 366.997 52.6422 365.444C53.1272 361.078 53.2066 356.676 52.8796 352.296C52.3826 345.797 51.2527 339.362 49.506 333.083C47.3415 325.41 44.7351 317.868 41.7 310.496C40.8954 308.517 40.1105 306.581 39.3454 304.688C38.5638 302.779 37.7921 300.889 36.9215 299.079C35.2425 295.618 33.3731 292.252 31.3218 288.997C29.3431 285.881 27.4238 282.992 25.5836 280.301C23.7434 277.61 21.9527 275.137 20.2313 272.95C17.5241 269.482 14.5467 266.234 11.3272 263.235C10.1894 262.176 9.27921 261.375 8.65593 260.851L7.95349 260.247C7.7952 260.119 7.71605 260.049 7.70616 260.059Z" fill="#263238"/>
<path d="M36.7731 299.059C36.8907 298.739 36.9736 298.407 37.0204 298.07C37.159 297.427 37.337 296.507 37.525 295.349C37.9109 293.044 38.3462 289.848 38.8013 286.326C39.2564 282.804 39.7313 279.618 40.1567 277.323C40.3644 276.185 40.5425 275.255 40.6711 274.612C40.7605 274.29 40.8136 273.958 40.8294 273.623C40.6796 273.938 40.5699 274.27 40.5029 274.612C40.3249 275.236 40.0973 276.156 39.85 277.294C39.3553 279.579 38.8606 282.765 38.3759 286.297C37.8911 289.829 37.525 292.925 37.2282 295.339C37.0798 296.418 36.9512 297.318 36.8622 298.07C36.7943 298.395 36.7644 298.727 36.7731 299.059Z" fill="#263238"/>
<path d="M6.68713 292.767C7.08002 292.86 7.48081 292.917 7.88424 292.935C8.65592 293.024 9.78378 293.143 11.159 293.341C13.9192 293.697 17.7183 294.33 21.8736 295.201C26.0288 296.071 29.7883 297.051 32.4299 297.813C33.7754 298.188 34.8538 298.525 35.5958 298.752C35.9767 298.895 36.3712 298.997 36.7731 299.059C36.4118 298.878 36.0382 298.723 35.6551 298.594C34.923 298.317 33.8545 297.941 32.5189 297.526C29.8576 296.675 26.1278 295.666 21.9626 294.785C18.4064 294.021 14.8138 293.436 11.1985 293.034C9.80357 292.876 8.67572 292.806 7.90403 292.777C7.49976 292.733 7.09206 292.729 6.68713 292.767Z" fill="#263238"/>
<path d="M49.1201 332.519C49.2079 332.41 49.2811 332.29 49.3378 332.163L49.8819 331.094C50.3469 330.164 50.99 328.809 51.7617 327.137C53.3051 323.753 55.2838 319.014 57.3911 313.761C59.4984 308.507 61.4474 303.749 62.9116 300.345L64.6627 296.309L65.1376 295.211C65.2366 294.953 65.286 294.815 65.2662 294.815C65.1848 294.926 65.1151 295.045 65.0585 295.171L64.5143 296.239C64.0395 297.169 63.4063 298.525 62.6346 300.197C61.0912 303.58 59.1125 308.319 56.9953 313.573C54.8781 318.826 52.9489 323.585 51.4748 326.988C50.7624 328.65 50.1688 330.016 49.7236 331.025L49.2586 332.123C49.1956 332.248 49.149 332.381 49.1201 332.519Z" fill="#263238"/>
<path d="M9.27923 318.787C9.27923 318.787 9.40785 318.866 9.66507 318.965L10.8226 319.37L15.0966 320.854C18.6978 322.101 23.6544 323.882 29.1255 325.86C34.5966 327.839 39.573 329.57 43.2038 330.748C45.0242 331.341 46.4885 331.797 47.5174 332.093L48.6947 332.43C48.9717 332.509 49.1201 332.539 49.1201 332.519C48.9944 332.449 48.8617 332.393 48.7244 332.351L47.5669 331.935L43.3028 330.461C39.7016 329.214 34.745 327.434 29.2739 325.455C23.8028 323.476 18.8165 321.735 15.1955 320.558C13.3751 319.974 11.901 319.509 10.882 319.212L9.69475 318.876C9.55955 318.832 9.42035 318.802 9.27923 318.787Z" fill="#263238"/>
<path d="M454.405 237.492L394.718 237.215C393.01 237.211 391.319 236.87 389.743 236.211C388.167 235.552 386.737 234.588 385.534 233.374C384.332 232.161 383.381 230.722 382.736 229.14C382.091 227.558 381.766 225.864 381.777 224.156L382.411 74.933C382.42 73.2275 382.765 71.5406 383.426 69.9686C384.087 68.3966 385.052 66.9703 386.265 65.7713C387.478 64.5723 388.915 63.624 390.494 62.9807C392.074 62.3374 393.764 62.0116 395.47 62.022L455.157 62.2892C458.6 62.3022 461.897 63.6804 464.324 66.1212C466.752 68.562 468.113 71.8662 468.108 75.3089L467.474 224.542C467.469 226.251 467.127 227.942 466.467 229.519C465.807 231.096 464.842 232.526 463.628 233.73C462.414 234.933 460.974 235.884 459.391 236.53C457.809 237.176 456.114 237.503 454.405 237.492Z" fill="#455A64"/>
<path d="M455.078 67.4832H443.503C443.126 67.4883 442.755 67.5677 442.409 67.7168C442.063 67.8659 441.751 68.0818 441.489 68.352C441.227 68.6223 441.021 68.9416 440.883 69.2916C440.744 69.6417 440.676 70.0156 440.683 70.3919V72.4893C440.691 73.2487 440.4 73.9808 439.872 74.527C439.344 75.0732 438.623 75.3897 437.863 75.4078L415.296 75.299C414.917 75.2901 414.544 75.2059 414.198 75.0514C413.852 74.8969 413.54 74.6751 413.28 74.3989C413.021 74.1227 412.819 73.7977 412.686 73.4426C412.553 73.0876 412.492 72.7097 412.506 72.331V70.2138C412.52 69.8353 412.458 69.458 412.324 69.1036C412.191 68.7492 411.989 68.4246 411.73 68.1487C411.47 67.8728 411.159 67.651 410.813 67.496C410.468 67.341 410.095 67.256 409.716 67.2457H405.64H395.51C394.316 67.2392 393.132 67.468 392.026 67.9189C390.921 68.3698 389.915 69.034 389.066 69.8737C388.217 70.7134 387.542 71.7121 387.079 72.8127C386.616 73.9133 386.374 75.0944 386.368 76.2883L385.745 221.95C385.739 224.362 386.692 226.678 388.393 228.388C390.094 230.098 392.405 231.063 394.817 231.071L454.385 231.348C456.797 231.359 459.114 230.413 460.83 228.718C462.545 227.023 463.519 224.717 463.537 222.306L464.15 76.6445C464.159 75.4464 463.932 74.2582 463.48 73.1484C463.028 72.0386 462.362 71.029 461.519 70.1776C460.676 69.3263 459.673 68.65 458.567 68.1875C457.462 67.7251 456.276 67.4858 455.078 67.4832Z" fill="white"/>
<path d="M454.098 166.596H395.153V170.543H454.098V166.596Z" fill="#455A64"/>
<path d="M452.001 182.119C452.001 182.257 439.417 182.376 423.904 182.376C408.391 182.376 395.796 182.257 395.796 182.119C395.796 181.98 408.381 181.861 423.904 181.861C439.427 181.861 452.001 181.98 452.001 182.119Z" fill="#455A64"/>
<path d="M452.001 88.6156C452.001 88.764 439.417 88.8728 423.904 88.8728C408.391 88.8728 395.796 88.764 395.796 88.6156C395.796 88.4672 408.381 88.3584 423.904 88.3584C439.427 88.3584 452.001 88.4474 452.001 88.6156Z" fill="#455A64"/>
<path d="M452.001 189.301C452.001 189.44 439.417 189.558 423.904 189.558C408.391 189.558 395.796 189.44 395.796 189.301C395.796 189.163 408.381 189.044 423.904 189.044C439.427 189.044 452.001 189.153 452.001 189.301Z" fill="#455A64"/>
<path d="M452.001 196.454C452.001 196.593 439.417 196.711 423.904 196.711C408.391 196.711 395.796 196.593 395.796 196.454C395.796 196.316 408.381 196.197 423.904 196.197C439.427 196.197 452.001 196.335 452.001 196.454Z" fill="#455A64"/>
<path d="M452.001 203.657C452.001 203.795 439.417 203.914 423.904 203.914C408.391 203.914 395.796 203.795 395.796 203.657C395.796 203.518 408.381 203.399 423.904 203.399C439.427 203.399 452.001 203.508 452.001 203.657Z" fill="#455A64"/>
<path d="M452.001 210.829C452.001 210.978 439.417 211.087 423.904 211.087C408.391 211.087 395.796 210.978 395.796 210.829C395.796 210.681 408.381 210.572 423.904 210.572C439.427 210.572 452.001 210.691 452.001 210.829Z" fill="#455A64"/>
<path d="M452.802 218.972C452.802 219.11 440.218 219.229 424.705 219.229C409.192 219.229 396.598 219.11 396.598 218.972C396.598 218.833 409.182 218.714 424.705 218.714C440.228 218.714 452.802 218.823 452.802 218.972Z" fill="#455A64"/>
<path d="M454.89 96.7777H395.796V153.952H454.89V96.7777Z" fill="#E0E0E0"/>
<path d="M400.377 149.055L416.731 119.632L430.097 138.439L438.219 128.447L450.309 149.055H400.377Z" fill="#EE4248"/>
<path d="M435.796 113.913C435.796 114.755 435.546 115.577 435.079 116.277C434.611 116.976 433.947 117.522 433.169 117.844C432.392 118.166 431.537 118.25 430.711 118.086C429.886 117.921 429.128 117.516 428.533 116.921C427.938 116.326 427.533 115.568 427.369 114.743C427.205 113.918 427.289 113.063 427.611 112.285C427.933 111.508 428.478 110.843 429.178 110.376C429.877 109.908 430.7 109.659 431.541 109.659C432.669 109.662 433.749 110.111 434.547 110.908C435.344 111.705 435.793 112.786 435.796 113.913Z" fill="#EE4248"/>
<path d="M450.309 149.213C450.309 149.213 450.309 149.134 450.309 148.976C450.309 148.817 450.309 148.59 450.309 148.313C450.309 147.699 450.309 146.848 450.309 145.74C450.309 143.475 450.309 140.19 450.24 136.025C450.24 127.675 450.171 115.783 450.121 101.507L450.359 101.744H400.436C400.367 101.804 400.961 101.21 400.713 101.467V114.329C400.713 118.533 400.713 122.649 400.713 126.646C400.713 134.66 400.713 142.228 400.713 149.193L400.466 148.946L436.567 149.074L446.758 149.134H449.458H450.151H450.398H450.181H449.508H446.856L436.726 149.193L400.466 149.322H400.219V149.074C400.219 142.149 400.219 134.541 400.219 126.527C400.219 122.57 400.219 118.415 400.219 114.21V101.349C399.962 101.596 400.555 100.992 400.506 101.062H450.428H450.527V101.477C450.468 115.823 450.428 127.764 450.398 136.154C450.398 140.289 450.398 143.554 450.339 145.81C450.339 146.898 450.339 147.739 450.339 148.332C450.339 148.6 450.339 148.807 450.339 148.976C450.34 149.056 450.33 149.136 450.309 149.213Z" fill="#455A64"/>
<path d="M144.265 11.4269V143.227C144.265 149.538 149.381 154.654 155.692 154.654H354.788C361.099 154.654 366.215 149.538 366.215 143.227V11.4269C366.215 5.11598 361.099 -1.52588e-05 354.788 -1.52588e-05H155.692C149.381 -1.52588e-05 144.265 5.11598 144.265 11.4269Z" fill="#455A64"/>
<path d="M159.442 4.87747V149.777H344.796V4.87747H159.442Z" fill="white"/>
<path d="M355.055 71.3911C356.229 71.3911 357.377 71.7393 358.353 72.3915C359.329 73.0438 360.09 73.9709 360.539 75.0555C360.989 76.1402 361.106 77.3338 360.877 78.4853C360.648 79.6367 360.083 80.6944 359.253 81.5246C358.422 82.3548 357.365 82.9202 356.213 83.1492C355.062 83.3782 353.868 83.2607 352.784 82.8114C351.699 82.3621 350.772 81.6013 350.12 80.6251C349.467 79.6489 349.119 78.5012 349.119 77.3272C349.119 75.7528 349.745 74.243 350.858 73.1298C351.971 72.0165 353.481 71.3911 355.055 71.3911Z" fill="#263238"/>
<path d="M150.657 55.245V99.4093C150.657 100.076 151.197 100.616 151.864 100.616H151.903C152.57 100.616 153.11 100.076 153.11 99.4093V55.245C153.11 54.5784 152.57 54.038 151.903 54.038H151.864C151.197 54.038 150.657 54.5784 150.657 55.245Z" fill="#263238"/>
<path d="M302.936 15.7603H243.991V19.7077H302.936V15.7603Z" fill="#455A64"/>
<path d="M226.153 83.5601H167.208V87.5075H226.153V83.5601Z" fill="#455A64"/>
<path d="M317.292 30.4421C317.292 30.5905 300.889 30.6993 280.686 30.6993C260.484 30.6993 244.031 30.5905 244.031 30.4421C244.031 30.2937 260.434 30.1849 280.686 30.1849C300.938 30.1849 317.292 30.3036 317.292 30.4421Z" fill="#455A64"/>
<path d="M317.292 39.0593C317.292 39.1978 300.889 39.3165 280.686 39.3165C260.484 39.3165 244.031 39.1978 244.031 39.0593C244.031 38.9208 260.434 38.8021 280.686 38.8021C300.938 38.8021 317.292 38.9109 317.292 39.0593Z" fill="#455A64"/>
<path d="M317.292 47.6666C317.292 47.8051 300.889 47.9238 280.686 47.9238C260.484 47.9238 244.031 47.8051 244.031 47.6666C244.031 47.5281 260.434 47.4094 280.686 47.4094C300.938 47.4094 317.292 47.5281 317.292 47.6666Z" fill="#455A64"/>
<path d="M317.292 56.2739C317.292 56.4223 300.889 56.5311 280.686 56.5311C260.484 56.5311 244.031 56.4223 244.031 56.2739C244.031 56.1255 260.434 56.0167 280.686 56.0167C300.938 56.0167 317.292 56.1354 317.292 56.2739Z" fill="#455A64"/>
<path d="M317.292 64.8713C317.292 65.0098 300.889 65.1285 280.686 65.1285C260.484 65.1285 244.031 65.0098 244.031 64.8713C244.031 64.7328 260.434 64.6141 280.686 64.6141C300.938 64.6141 317.292 64.7427 317.292 64.8713Z" fill="#455A64"/>
<path d="M301.215 73.4984C301.215 73.6369 288.403 73.7557 272.603 73.7557C256.803 73.7557 243.991 73.6369 243.991 73.4984C243.991 73.3599 256.793 73.2412 272.603 73.2412C288.413 73.2412 301.215 73.3599 301.215 73.4984Z" fill="#455A64"/>
<path d="M264.016 99.0828C264.016 99.2214 242.488 99.3401 215.934 99.3401C189.38 99.3401 167.851 99.2214 167.851 99.0828C167.851 98.9443 189.38 98.8256 215.934 98.8256C242.488 98.8256 264.016 98.9344 264.016 99.0828Z" fill="#455A64"/>
<path d="M264.016 106.256C264.016 106.404 242.488 106.513 215.934 106.513C189.38 106.513 167.851 106.404 167.851 106.256C167.851 106.107 189.38 105.998 215.934 105.998C242.488 105.998 264.016 106.117 264.016 106.256Z" fill="#455A64"/>
<path d="M264.016 113.438C264.016 113.577 242.488 113.695 215.934 113.695C189.38 113.695 167.851 113.577 167.851 113.438C167.851 113.3 189.38 113.181 215.934 113.181C242.488 113.181 264.016 113.29 264.016 113.438Z" fill="#455A64"/>
<path d="M264.016 120.611C264.016 120.759 242.488 120.868 215.934 120.868C189.38 120.868 167.851 120.759 167.851 120.611C167.851 120.463 189.38 120.354 215.934 120.354C242.488 120.354 264.016 120.472 264.016 120.611Z" fill="#455A64"/>
<path d="M264.016 127.794C264.016 127.932 242.488 128.051 215.934 128.051C189.38 128.051 167.851 127.932 167.851 127.794C167.851 127.655 189.38 127.536 215.934 127.536C242.488 127.536 264.016 127.655 264.016 127.794Z" fill="#455A64"/>
<path d="M226.945 13.7321H167.851V70.9063H226.945V13.7321Z" fill="#EE4248"/>
<path d="M172.432 66.0189L188.786 36.5958L202.152 55.3934L210.274 45.4109L222.364 66.0189H172.432Z" fill="#E0E0E0"/>
<path d="M207.851 30.8675C207.853 31.7093 207.605 32.5328 207.138 33.2337C206.672 33.9346 206.008 34.4814 205.231 34.8049C204.454 35.1284 203.598 35.2141 202.773 35.0511C201.947 34.888 201.188 34.4836 200.592 33.8891C199.996 33.2945 199.59 32.5365 199.425 31.711C199.26 30.8855 199.343 30.0296 199.665 29.2517C199.987 28.4738 200.532 27.8088 201.232 27.3409C201.932 26.873 202.755 26.6232 203.596 26.6232C204.723 26.6232 205.804 27.0701 206.601 27.8658C207.399 28.6614 207.848 29.741 207.851 30.8675Z" fill="#E0E0E0"/>
<path d="M222.364 66.1773C222.364 66.1773 222.364 66.0882 222.364 65.9398C222.364 65.7914 222.364 65.554 222.364 65.277C222.364 64.6636 222.364 63.8029 222.364 62.7047C222.364 60.4292 222.364 57.1545 222.305 52.9893C222.305 44.6392 222.236 32.7473 222.186 18.4711L222.424 18.7085H172.501C172.432 18.7679 173.026 18.1842 172.778 18.4414V24.9018C172.778 27.0388 172.778 29.1659 172.778 31.2633V43.5807C172.778 51.5943 172.778 59.1628 172.778 66.1278L172.531 65.8805L208.632 65.9992L218.813 66.0685H221.513H222.216H222.463H222.246H221.573H218.921L208.79 66.1377L172.531 66.2564H172.284V66.0091C172.284 59.0837 172.284 51.4756 172.284 43.4619C172.284 39.4584 172.284 35.3526 172.284 31.1446V18.2831C172.026 18.5305 172.62 17.927 172.571 17.9863H222.493H222.74V18.2336C222.691 32.5693 222.651 44.5205 222.621 52.9102C222.621 57.0456 222.572 60.3105 222.562 62.5662C222.562 63.6446 222.562 64.5449 222.562 65.089C222.562 65.3561 222.562 65.5639 222.562 65.7321C222.555 65.9002 222.484 66.0594 222.364 66.1773Z" fill="#455A64"/>
<path d="M319.102 91.1384H277.283V131.603H319.102V91.1384Z" fill="#EE4248"/>
<path d="M280.528 128.14L292.093 107.324L301.561 120.631L307.309 113.557L315.857 128.14H280.528Z" fill="#E0E0E0"/>
<path d="M305.588 103.268C305.588 103.855 305.414 104.429 305.088 104.917C304.762 105.405 304.298 105.785 303.756 106.01C303.213 106.235 302.617 106.293 302.041 106.179C301.465 106.064 300.936 105.782 300.521 105.366C300.106 104.951 299.823 104.423 299.709 103.847C299.594 103.271 299.653 102.674 299.878 102.132C300.102 101.59 300.483 101.126 300.971 100.8C301.459 100.474 302.033 100.3 302.62 100.3C303.407 100.3 304.162 100.612 304.719 101.169C305.275 101.726 305.588 102.481 305.588 103.268Z" fill="#E0E0E0"/>
<path d="M315.857 128.249C315.857 128.249 315.857 128.189 315.857 128.09C315.857 127.991 315.857 127.813 315.857 127.616C315.857 127.18 315.857 126.626 315.857 125.795C315.857 124.192 315.857 121.838 315.857 118.87C315.857 112.934 315.808 104.544 315.768 94.4428L315.936 94.611H280.607C280.557 94.611 280.983 94.235 280.805 94.423V103.505C280.805 106.473 280.805 109.379 280.805 112.221C280.805 117.89 280.805 123.243 280.805 128.17L280.637 128.001L306.083 128.189H313.285H315.204H315.867C315.867 128.189 315.818 128.189 315.719 128.189H315.244H313.364L306.191 128.239L280.538 128.328H280.36V128.15C280.36 123.203 280.36 117.87 280.36 112.202V94.5516C280.182 94.7198 280.607 94.2944 280.567 94.3439H315.897H316.075V94.5121C316.075 104.663 316.006 113.112 315.986 119.048C315.986 122.016 315.986 124.291 315.936 125.884C315.936 126.656 315.936 127.249 315.936 127.675C315.936 127.863 315.936 128.011 315.936 128.13C315.936 128.249 315.867 128.259 315.857 128.249Z" fill="#455A64"/>
<path d="M349.208 170.286H67.7891C59.828 170.286 53.3743 176.74 53.3743 184.701V361.032C53.3743 368.993 59.828 375.446 67.7891 375.446H349.208C357.169 375.446 363.623 368.993 363.623 361.032V184.701C363.623 176.74 357.169 170.286 349.208 170.286Z" fill="#263238"/>
<path d="M40.4041 360.28H376.534V360.626C376.534 365.297 374.678 369.776 371.376 373.078C368.073 376.381 363.594 378.236 358.924 378.236H58.0144C53.3438 378.236 48.8646 376.381 45.562 373.078C42.2594 369.776 40.4041 365.297 40.4041 360.626V360.28Z" fill="#263238"/>
<path d="M354.432 178.438H61.7046V351.692H354.432V178.438Z" fill="#E0E0E0"/>
<path d="M177.913 360.28L182.088 366.918H240.776L244.654 360.28H177.913Z" fill="#455A64"/>
<path d="M340.977 189.984H71.4695V351.633H340.977V189.984Z" fill="#FAFAFA"/>
<path d="M82.9755 197.948C82.9775 198.397 82.8463 198.836 82.5985 199.209C82.3508 199.583 81.9976 199.875 81.5838 200.048C81.17 200.221 80.7142 200.268 80.274 200.181C79.8339 200.095 79.4293 199.88 79.1114 199.564C78.7936 199.247 78.5768 198.843 78.4886 198.404C78.4004 197.964 78.4447 197.508 78.6159 197.093C78.787 196.679 79.0774 196.324 79.4502 196.075C79.823 195.826 80.2614 195.692 80.7099 195.692C81.3091 195.692 81.8839 195.93 82.3085 196.352C82.7331 196.775 82.9729 197.349 82.9755 197.948Z" fill="#455A64"/>
<path d="M92.1962 197.948C92.1982 198.397 92.0667 198.836 91.8185 199.211C91.5703 199.585 91.2166 199.877 90.8022 200.049C90.3878 200.222 89.9315 200.268 89.4911 200.181C89.0507 200.093 88.6461 199.877 88.3286 199.56C88.0112 199.243 87.7952 198.838 87.7081 198.398C87.621 197.957 87.6667 197.501 87.8394 197.086C88.0121 196.672 88.304 196.318 88.6781 196.07C89.0522 195.822 89.4916 195.69 89.9405 195.692C90.5388 195.692 91.1125 195.93 91.5355 196.353C91.9586 196.776 92.1962 197.35 92.1962 197.948Z" fill="#455A64"/>
<path d="M101.427 197.948C101.429 198.397 101.298 198.836 101.05 199.209C100.802 199.583 100.449 199.875 100.035 200.048C99.6213 200.221 99.1655 200.268 98.7253 200.181C98.2852 200.095 97.8806 199.88 97.5627 199.564C97.2449 199.247 97.0281 198.843 96.9399 198.404C96.8517 197.964 96.896 197.508 97.0672 197.093C97.2384 196.679 97.5287 196.324 97.9015 196.075C98.2743 195.826 98.7127 195.692 99.1612 195.692C99.4583 195.691 99.7527 195.748 100.027 195.861C100.302 195.974 100.552 196.14 100.763 196.35C100.973 196.559 101.14 196.808 101.254 197.083C101.368 197.357 101.427 197.651 101.427 197.948Z" fill="#455A64"/>
<path d="M340.977 207.842C340.977 207.99 280.627 208.099 206.228 208.099C131.829 208.099 71.4695 207.99 71.4695 207.842C71.4695 207.693 131.819 207.584 206.228 207.584C280.637 207.584 340.977 207.703 340.977 207.842Z" fill="#455A64"/>
<path d="M363.623 360.418H53.3743V361.408H363.623V360.418Z" fill="#455A64"/>
<path d="M152.507 286.386H93.5615V290.333H152.507V286.386Z" fill="#455A64"/>
<path d="M228.647 231.635H169.701V235.583H228.647V231.635Z" fill="#455A64"/>
<path d="M316.322 246.327C316.322 246.466 283.496 246.584 243.012 246.584C202.528 246.584 169.701 246.466 169.701 246.327C169.701 246.189 202.518 246.06 243.012 246.06C283.506 246.06 316.322 246.179 316.322 246.327Z" fill="#455A64"/>
<path d="M316.322 254.934C316.322 255.073 283.496 255.192 243.012 255.192C202.528 255.192 169.701 255.073 169.701 254.934C169.701 254.796 202.518 254.677 243.012 254.677C283.506 254.677 316.322 254.826 316.322 254.934Z" fill="#455A64"/>
<path d="M316.322 263.542C316.322 263.69 283.496 263.799 243.012 263.799C202.528 263.799 169.701 263.69 169.701 263.542C169.701 263.393 202.518 263.284 243.012 263.284C283.506 263.284 316.322 263.403 316.322 263.542Z" fill="#455A64"/>
<path d="M316.322 272.159C316.322 272.297 283.496 272.416 243.012 272.416C202.528 272.416 169.701 272.297 169.701 272.159C169.701 272.02 202.518 271.892 243.012 271.892C283.506 271.892 316.322 272.01 316.322 272.159Z" fill="#455A64"/>
<path d="M316.322 280.766C316.322 280.905 283.496 281.023 243.012 281.023C202.528 281.023 169.701 280.905 169.701 280.766C169.701 280.628 202.518 280.509 243.012 280.509C283.506 280.509 316.322 280.618 316.322 280.766Z" fill="#455A64"/>
<path d="M226.935 289.373C226.935 289.512 214.123 289.631 198.323 289.631C182.523 289.631 169.701 289.512 169.701 289.373C169.701 289.235 182.563 289.116 198.323 289.116C214.083 289.116 226.935 289.235 226.935 289.373Z" fill="#455A64"/>
<path d="M315.244 306.083C315.244 306.232 293.666 306.341 267.063 306.341C240.459 306.341 218.882 306.232 218.882 306.083C218.882 305.935 240.449 305.826 267.063 305.826C293.676 305.826 315.244 305.945 315.244 306.083Z" fill="#455A64"/>
<path d="M315.244 315.225C315.244 315.363 293.666 315.482 267.063 315.482C240.459 315.482 218.882 315.363 218.882 315.225C218.882 315.086 240.449 314.968 267.063 314.968C293.676 314.968 315.244 315.086 315.244 315.225Z" fill="#455A64"/>
<path d="M315.244 324.367C315.244 324.505 293.666 324.624 267.063 324.624C240.459 324.624 218.882 324.505 218.882 324.367C218.882 324.228 240.449 324.109 267.063 324.109C293.676 324.109 315.244 324.218 315.244 324.367Z" fill="#455A64"/>
<path d="M315.244 333.508C315.244 333.647 293.666 333.765 267.063 333.765C240.459 333.765 218.882 333.647 218.882 333.508C218.882 333.37 240.449 333.251 267.063 333.251C293.676 333.251 315.244 333.36 315.244 333.508Z" fill="#455A64"/>
<path d="M152.655 305.213C152.655 305.351 139.794 305.47 123.964 305.47C108.135 305.47 95.2731 305.351 95.2731 305.213C95.2731 305.074 108.135 304.956 123.964 304.956C139.794 304.956 152.655 305.064 152.655 305.213Z" fill="#455A64"/>
<path d="M152.655 312.386C152.655 312.534 139.794 312.643 123.964 312.643C108.135 312.643 95.2731 312.534 95.2731 312.386C95.2731 312.237 108.135 312.128 123.964 312.128C139.794 312.128 152.655 312.207 152.655 312.386Z" fill="#455A64"/>
<path d="M152.655 319.568C152.655 319.707 139.794 319.825 123.964 319.825C108.135 319.825 95.2731 319.707 95.2731 319.568C95.2731 319.43 108.135 319.311 123.964 319.311C139.794 319.311 152.655 319.43 152.655 319.568Z" fill="#455A64"/>
<path d="M152.655 326.741C152.655 326.889 139.794 326.998 123.964 326.998C108.135 326.998 95.2731 326.889 95.2731 326.741C95.2731 326.593 108.135 326.484 123.964 326.484C139.794 326.484 152.655 326.602 152.655 326.741Z" fill="#455A64"/>
<path d="M152.655 333.973C152.655 334.112 139.794 334.23 123.964 334.23C108.135 334.23 95.2731 334.112 95.2731 333.973C95.2731 333.835 108.135 333.716 123.964 333.716C139.794 333.716 152.655 333.785 152.655 333.973Z" fill="#455A64"/>
<path d="M152.655 218.754H93.5615V275.928H152.655V218.754Z" fill="#E0E0E0"/>
<path d="M98.1422 271.031L114.496 241.608L127.862 260.415L135.995 250.433L148.074 271.031H98.1422Z" fill="#EE4248"/>
<path d="M133.561 235.889C133.561 236.731 133.311 237.553 132.844 238.253C132.376 238.953 131.712 239.498 130.935 239.82C130.157 240.142 129.302 240.226 128.477 240.062C127.651 239.898 126.893 239.493 126.298 238.898C125.703 238.303 125.298 237.545 125.134 236.719C124.97 235.894 125.054 235.039 125.376 234.261C125.698 233.484 126.243 232.82 126.943 232.352C127.643 231.885 128.465 231.635 129.307 231.635C130.435 231.635 131.517 232.083 132.315 232.881C133.112 233.679 133.561 234.761 133.561 235.889Z" fill="#EE4248"/>
<path d="M148.074 271.189C148.07 271.113 148.07 271.038 148.074 270.962C148.074 270.784 148.074 270.566 148.074 270.289C148.074 269.685 148.074 268.825 148.074 267.717C148.074 265.451 148.074 262.176 148.005 258.011C148.005 249.661 147.936 237.769 147.886 223.483L148.124 223.73H98.2015C98.1323 223.79 98.7259 223.196 98.4786 223.453V236.315C98.4786 240.51 98.4786 244.625 98.4786 248.632C98.4786 256.636 98.4786 264.204 98.4786 271.169L98.2312 270.932L134.332 271.051L144.523 271.12H147.224H148.163C148.163 271.12 148.094 271.12 147.946 271.12H147.273H144.622L134.491 271.189L98.2312 271.308H97.9938V271.061C97.9938 264.135 97.9938 256.527 97.9938 248.523C97.9938 244.517 97.9938 240.401 97.9938 236.206V223.345L98.2807 223.058H148.203H148.45V223.295C148.45 237.641 148.351 249.582 148.322 257.972C148.322 262.117 148.322 265.372 148.262 267.628C148.262 268.716 148.262 269.557 148.262 270.16C148.262 270.427 148.262 270.635 148.262 270.794C148.262 270.952 148.084 271.199 148.074 271.189Z" fill="#455A64"/>
<path d="M211.482 301.72H169.662V342.185H211.482V301.72Z" fill="#E0E0E0"/>
<path d="M172.907 338.722L184.472 317.906L193.94 331.213L199.689 324.139L208.246 338.722H172.907Z" fill="#EE4248"/>
<path d="M197.967 313.85C197.967 314.437 197.793 315.011 197.467 315.499C197.141 315.987 196.677 316.367 196.135 316.592C195.593 316.817 194.996 316.875 194.42 316.761C193.844 316.646 193.315 316.364 192.9 315.949C192.485 315.533 192.203 315.005 192.088 314.429C191.974 313.853 192.032 313.256 192.257 312.714C192.482 312.172 192.862 311.708 193.35 311.382C193.838 311.056 194.412 310.882 194.999 310.882C195.786 310.882 196.541 311.194 197.098 311.751C197.654 312.308 197.967 313.063 197.967 313.85Z" fill="#EE4248"/>
<path d="M208.246 338.841C208.243 338.785 208.243 338.728 208.246 338.672C208.246 338.554 208.246 338.395 208.246 338.198C208.246 337.772 208.246 337.208 208.246 336.377C208.246 334.774 208.246 332.42 208.197 329.501C208.197 323.565 208.197 315.175 208.118 305.074L208.286 305.242H172.947C172.947 305.242 173.322 304.867 173.144 305.054V322.863C173.144 328.532 173.144 333.884 173.144 338.821L172.966 338.643L198.521 338.732L205.724 338.781H207.633H205.753H198.59L172.927 338.87H172.759V338.702C172.759 333.755 172.759 328.413 172.759 322.744C172.759 319.914 172.759 316.996 172.759 314.028V304.965C172.58 305.134 172.996 304.708 172.956 304.758H208.296H208.464V304.926C208.464 315.077 208.395 323.526 208.375 329.472C208.375 332.44 208.375 334.705 208.375 336.298C208.375 337.07 208.375 337.663 208.375 338.089C208.375 338.277 208.375 338.425 208.375 338.544C208.352 338.65 208.308 338.751 208.246 338.841Z" fill="#455A64"/>
<path d="M560.69 360.685L550.797 359.508L548.472 378.048L562.946 379.918L563.164 378.78C564.094 373.695 567.507 352.879 566.893 349.328C566.211 345.37 560.69 360.685 560.69 360.685Z" fill="#EE4248"/>
<path d="M566.033 348.002C566.211 348.002 565.528 354.987 564.509 363.545C563.49 372.102 562.531 379.028 562.352 379.008C562.174 378.988 562.867 372.083 563.876 363.465C564.885 354.848 565.855 347.982 566.033 348.002Z" fill="#263238"/>
<path d="M562.748 359.815C562.649 359.953 562.135 359.755 561.66 359.3C561.185 358.845 560.987 358.311 561.126 358.222C561.264 358.133 561.68 358.42 562.115 358.845C562.55 359.271 562.857 359.696 562.748 359.815Z" fill="#263238"/>
<path d="M563.54 358.707C563.46 358.865 562.877 358.707 562.303 358.271C561.729 357.836 561.413 357.282 561.541 357.183C561.67 357.084 562.155 357.351 562.689 357.757C563.223 358.163 563.629 358.548 563.54 358.707Z" fill="#263238"/>
<path d="M562.956 373.408C562.956 373.487 562.709 373.735 562.214 374.091C561.585 374.519 560.999 375.006 560.463 375.545C559.956 376.081 559.589 376.734 559.394 377.445C559.256 377.999 559.295 378.365 559.196 378.385C559.097 378.405 558.919 378.038 558.949 377.395C559.019 376.551 559.367 375.754 559.938 375.13C560.504 374.539 561.175 374.06 561.917 373.715C562.54 373.438 562.906 373.329 562.956 373.408Z" fill="#263238"/>
<path d="M560.898 359.538C561.056 359.468 561.373 359.835 561.492 360.379C561.61 360.923 561.492 361.368 561.314 361.368C561.135 361.368 560.977 360.972 560.868 360.487C560.76 360.003 560.73 359.607 560.898 359.538Z" fill="#263238"/>
<path d="M559.909 359.696C560.077 359.696 560.166 360.21 560.107 360.844C560.047 361.477 559.839 361.952 559.671 361.912C559.503 361.873 559.404 361.368 559.473 360.774C559.543 360.181 559.731 359.696 559.909 359.696Z" fill="#263238"/>
<path d="M554.655 379.522L499.816 373.962L386.101 376.505L416.335 352.128L492.228 348.487L558.583 357.628L554.655 379.522Z" fill="#263238"/>
<path d="M461.964 364.296C461.964 364.445 451.289 364.554 438.12 364.554C424.952 364.554 414.287 364.445 414.287 364.296C414.287 364.148 424.952 364.039 438.12 364.039C451.289 364.039 461.964 364.158 461.964 364.296Z" fill="#455A64"/>
<path d="M456.661 350.188L460.559 374.714H468.038L462.35 349.921L456.661 350.188Z" fill="black"/>
<path d="M485.609 375.041L484.501 365.147L465.911 367.126L467.346 381.61H468.503C473.668 381.353 494.711 379.948 498.025 378.543C501.765 376.93 485.609 375.041 485.609 375.041Z" fill="#EE4248"/>
<path d="M498.411 377.504C498.411 377.682 491.486 378.602 482.928 379.562C474.37 380.522 467.405 381.155 467.385 380.977C467.365 380.799 474.311 379.889 482.859 378.929C491.407 377.969 498.391 377.366 498.411 377.504Z" fill="#263238"/>
<path d="M486.143 377.029C485.975 376.96 486.054 376.416 486.391 375.852C486.727 375.288 487.192 374.971 487.321 375.08C487.449 375.189 487.251 375.664 486.945 376.179C486.638 376.693 486.321 377.099 486.143 377.029Z" fill="#263238"/>
<path d="M487.419 377.504C487.251 377.504 487.271 376.861 487.568 376.198C487.865 375.535 488.3 375.12 488.448 375.209C488.597 375.298 488.448 375.832 488.152 376.446C487.855 377.059 487.588 377.593 487.419 377.504Z" fill="#263238"/>
<path d="M472.965 380.314C472.906 380.373 472.589 380.146 472.134 379.75C471.575 379.236 470.969 378.776 470.324 378.375C469.685 378.004 468.965 377.796 468.226 377.771C467.662 377.771 467.306 377.88 467.237 377.771C467.168 377.662 467.504 377.425 468.157 377.306C469.007 377.186 469.873 377.361 470.611 377.801C471.313 378.223 471.931 378.774 472.431 379.424C472.847 379.928 473.034 380.255 472.965 380.314Z" fill="#263238"/>
<path d="M486.005 375.159C486.114 375.298 485.827 375.684 485.322 375.931C484.817 376.178 484.333 376.159 484.333 375.991C484.333 375.822 484.639 375.575 485.085 375.357C485.53 375.14 485.906 375.011 486.005 375.159Z" fill="#263238"/>
<path d="M485.609 374.229C485.609 374.408 485.164 374.605 484.541 374.685C483.917 374.764 483.403 374.685 483.393 374.506C483.383 374.328 483.868 374.131 484.461 374.051C485.055 373.972 485.569 374.061 485.609 374.229Z" fill="#263238"/>
<path d="M376.84 261.87L392.67 261.583C392.888 259.752 393.194 252.619 393.194 252.619C393.194 252.619 399.823 251.996 400.308 245.446C400.792 238.897 400.585 223.74 400.585 223.74C396.952 221.907 392.896 221.076 388.835 221.333C384.774 221.59 380.855 222.927 377.484 225.204L376.494 225.897L376.84 261.87Z" fill="#B78876"/>
<path d="M398.398 234.93C398.226 234.746 398.13 234.504 398.13 234.252C398.13 234 398.226 233.758 398.398 233.574C398.534 233.43 398.71 233.33 398.904 233.286C399.097 233.243 399.299 233.259 399.483 233.332C399.668 233.405 399.826 233.532 399.937 233.696C400.049 233.86 400.108 234.054 400.108 234.252C400.108 234.45 400.049 234.644 399.937 234.808C399.826 234.972 399.668 235.099 399.483 235.172C399.299 235.245 399.097 235.261 398.904 235.218C398.71 235.175 398.534 235.074 398.398 234.93Z" fill="#263238"/>
<path d="M400.07 233.525C399.961 233.634 399.348 233.1 398.448 233.04C397.547 232.981 396.855 233.406 396.766 233.287C396.677 233.169 396.835 233.03 397.132 232.832C397.536 232.578 398.011 232.461 398.487 232.496C398.962 232.526 399.414 232.71 399.773 233.02C400.07 233.268 400.139 233.475 400.07 233.525Z" fill="#263238"/>
<path d="M389.623 233.673C389.764 233.841 389.846 234.051 389.856 234.27C389.865 234.489 389.801 234.705 389.674 234.884C389.548 235.063 389.365 235.195 389.155 235.259C388.945 235.323 388.72 235.315 388.515 235.236C388.374 235.183 388.247 235.097 388.144 234.987C388.041 234.877 387.965 234.744 387.921 234.6C387.877 234.455 387.867 234.303 387.891 234.154C387.915 234.005 387.973 233.863 388.06 233.74C388.147 233.617 388.262 233.515 388.394 233.443C388.527 233.371 388.674 233.33 388.825 233.324C388.976 233.317 389.126 233.345 389.265 233.406C389.403 233.467 389.525 233.558 389.623 233.673Z" fill="#263238"/>
<path d="M390.177 233.713C390.068 233.822 389.455 233.287 388.544 233.228C387.634 233.169 386.961 233.594 386.862 233.475C386.764 233.357 386.932 233.218 387.238 233.02C387.642 232.766 388.116 232.648 388.592 232.684C389.067 232.719 389.519 232.907 389.88 233.218C390.177 233.456 390.266 233.673 390.177 233.713Z" fill="#263238"/>
<path d="M393.382 241.4C393.858 241.244 394.356 241.171 394.856 241.182C395.094 241.182 395.292 241.123 395.312 241.004C395.336 240.766 395.291 240.526 395.183 240.312L394.579 238.432C393.999 236.829 393.581 235.172 393.333 233.485C394.076 235.014 394.659 236.615 395.074 238.264C395.272 238.917 395.45 239.54 395.638 240.154C395.773 240.466 395.797 240.815 395.707 241.143C395.666 241.231 395.606 241.309 395.531 241.371C395.455 241.433 395.367 241.477 395.272 241.499C395.137 241.517 395.001 241.517 394.866 241.499C394.37 241.548 393.868 241.515 393.382 241.4Z" fill="#263238"/>
<path d="M390.385 242.221C389.474 241.598 392.888 243.755 394.738 243.774C394.4 244.231 393.919 244.56 393.372 244.709C392.824 244.858 392.242 244.818 391.72 244.596C389.801 243.755 390.385 242.221 390.385 242.221Z" fill="white"/>
<path d="M393.234 252.52C390.198 252.387 387.271 251.354 384.824 249.552C384.824 249.552 386.556 254.4 393.145 254.212L393.234 252.52Z" fill="#A36957"/>
<path d="M401.06 221.376C401.436 221.363 401.804 221.265 402.136 221.088C402.469 220.911 402.756 220.66 402.976 220.354C403.196 220.049 403.344 219.697 403.407 219.326C403.47 218.955 403.447 218.574 403.34 218.213C403.233 217.852 403.044 217.521 402.789 217.244C402.534 216.967 402.219 216.752 401.868 216.616C401.517 216.48 401.139 216.427 400.764 216.459C400.389 216.492 400.026 216.61 399.704 216.805C400.49 216.158 401.131 215.352 401.584 214.44C401.802 213.982 401.874 213.468 401.791 212.968C401.708 212.467 401.473 212.004 401.119 211.641C400.706 211.357 400.224 211.191 399.724 211.159C399.224 211.128 398.725 211.233 398.28 211.463C396.885 212.066 395.786 213.243 394.322 213.738C392.858 214.233 391.295 213.985 389.761 214.055C388.052 214.087 386.397 214.658 385.032 215.687C384.36 216.207 383.82 216.876 383.454 217.643C383.088 218.409 382.907 219.25 382.925 220.099C380.778 219.842 378.404 219.813 376.712 221.148C376.031 221.754 375.493 222.503 375.136 223.341C374.778 224.179 374.61 225.085 374.644 225.996C374.809 227.814 375.243 229.598 375.93 231.289C376.05 231.785 376.273 232.25 376.583 232.654L377.385 237.364L380.303 237.304L380.115 227.51C380.115 227.51 379.818 223.374 383.38 223.74C386.942 224.106 391.76 228.113 398.675 227.094C399.806 227.035 400.909 226.72 401.901 226.174C402.381 225.872 402.772 225.446 403.033 224.942C403.294 224.437 403.415 223.872 403.385 223.305C403.324 222.744 403.048 222.229 402.614 221.868C402.18 221.508 401.622 221.331 401.06 221.376Z" fill="#263238"/>
<path d="M377.751 231.714C377.602 231.665 372.873 231.052 373.318 236.661C373.764 242.271 379.254 239.946 379.254 239.787C379.254 239.629 377.751 231.714 377.751 231.714Z" fill="#B78876"/>
<path d="M377.394 237.937C377.394 237.937 377.296 238.007 377.137 238.096C376.915 238.213 376.657 238.241 376.415 238.175C376.037 237.974 375.719 237.677 375.493 237.314C375.268 236.951 375.142 236.535 375.129 236.107C375.073 235.63 375.127 235.146 375.287 234.692C375.325 234.513 375.406 234.345 375.523 234.203C375.64 234.062 375.79 233.951 375.96 233.881C376.07 233.843 376.19 233.845 376.298 233.887C376.407 233.928 376.497 234.007 376.554 234.109C376.643 234.257 376.613 234.366 376.643 234.376C376.672 234.386 376.761 234.277 376.692 234.049C376.654 233.91 376.566 233.791 376.445 233.713C376.365 233.661 376.276 233.625 376.183 233.608C376.089 233.591 375.993 233.593 375.901 233.614C375.664 233.678 375.448 233.803 375.274 233.977C375.1 234.15 374.975 234.366 374.911 234.603C374.709 235.105 374.637 235.649 374.703 236.186C374.714 236.684 374.872 237.168 375.157 237.577C375.443 237.985 375.842 238.3 376.306 238.481C376.46 238.514 376.619 238.512 376.771 238.474C376.924 238.436 377.066 238.364 377.187 238.264C377.394 238.066 377.414 237.947 377.394 237.937Z" fill="#A36957"/>
<path d="M363.999 359.696C366.967 364.118 384.963 391.207 406.452 371.509C433.827 346.439 455.474 324.475 455.474 324.475L463.606 374.091L489.091 372.706C489.091 372.706 479.198 298.832 472.886 292.114C465.872 284.615 459.421 285.248 404.334 328.72L363.999 359.696Z" fill="#455A64"/>
<path d="M455.157 275.562L478.961 258.189L480.128 260.059L456.483 277.64L455.157 275.562Z" fill="#263238"/>
<path d="M461.044 275.028C461.044 275.028 464.229 266.717 465.001 264.946C465.773 263.176 466.93 260.089 467.385 260C467.84 259.911 469.502 260.198 467.385 265.481C465.268 270.764 469.958 267.539 469.958 267.539L474.538 264.254C474.538 264.254 478.159 275.077 476.101 278.342C474.484 280.78 472.667 283.08 470.67 285.218L461.044 275.028Z" fill="#B78876"/>
<path d="M461.311 274.058C460.836 272.98 430.562 299.712 424.537 300.622L406.887 277.64C406.887 277.64 403.226 271.822 395.361 261.87C390.276 255.449 376.267 256.784 372.606 264.61C366.353 277.907 366.274 292.688 362.94 321.448L361.486 340.899C361.172 345.038 361.235 349.197 361.674 353.325C362.208 358.143 363.296 363.218 365.532 362.496L405.907 329.125L407.203 313.969C415.692 322.576 418.334 324.376 422.746 323.684C433.856 321.962 472.748 286.989 472.748 286.989C472.748 286.989 461.776 275.147 461.311 274.058Z" fill="#EE4248"/>
<path d="M467.534 291.847C466.746 291.373 466.018 290.805 465.367 290.155C463.712 288.678 462.162 287.088 460.727 285.396C459.283 283.712 457.96 281.926 456.77 280.054C456.24 279.299 455.792 278.49 455.434 277.64C456.033 278.333 456.579 279.07 457.066 279.846C458.056 281.221 459.441 283.101 461.113 285.06C462.785 287.019 464.407 288.701 465.614 289.888C466.299 290.495 466.941 291.15 467.534 291.847Z" fill="#263238"/>
<path d="M422.825 309.734C422.841 308.185 423.027 306.642 423.379 305.134C423.573 303.596 423.931 302.084 424.448 300.622C424.432 302.171 424.246 303.714 423.894 305.223C423.701 306.761 423.343 308.273 422.825 309.734Z" fill="#263238"/>
<path d="M426.684 308.784C426.072 307.526 425.62 306.197 425.338 304.827C424.901 303.502 424.619 302.131 424.497 300.741C425.109 301.999 425.56 303.328 425.843 304.698C426.278 306.024 426.56 307.395 426.684 308.784Z" fill="#263238"/>
<path d="M382.974 281.676C383.337 282.076 383.667 282.502 383.964 282.953L386.595 286.534C388.821 289.551 391.928 293.707 395.401 298.248L404.354 309.863L407.055 313.395C407.42 313.812 407.751 314.259 408.044 314.73C407.647 314.354 407.28 313.947 406.946 313.513C406.264 312.712 405.304 311.535 404.117 310.09C401.752 307.172 398.517 303.115 395.044 298.564C391.572 294.013 388.505 289.819 386.358 286.742C385.28 285.208 384.379 283.952 383.845 283.071C383.518 282.63 383.227 282.164 382.974 281.676Z" fill="#263238"/>
<path d="M377.81 301.226C376.764 300.633 375.807 299.893 374.971 299.029C374.02 298.286 373.177 297.413 372.468 296.437C373.52 297.03 374.48 297.773 375.317 298.644C376.27 299.377 377.11 300.247 377.81 301.226Z" fill="#263238"/>
<path d="M374.347 312.376C373.315 314.513 371.983 316.492 370.39 318.252C370.825 317.142 371.422 316.102 372.161 315.166C372.753 314.136 373.489 313.196 374.347 312.376Z" fill="#263238"/>
<path d="M379.215 327.76C379.106 327.849 378.226 326.959 377.236 325.781C376.569 325.11 376.027 324.326 375.633 323.466C375.742 323.377 376.623 324.268 377.612 325.445C378.28 326.115 378.823 326.899 379.215 327.76Z" fill="#263238"/>
<path d="M369.796 337.624C369.172 338.355 368.421 338.968 367.58 339.434C366.834 340.039 365.986 340.508 365.077 340.819C365.701 340.088 366.452 339.475 367.293 339.009C368.04 338.404 368.887 337.935 369.796 337.624Z" fill="#263238"/>
<path d="M382.964 340.236C381.916 339.778 381.008 339.051 380.333 338.128C379.53 337.302 378.96 336.278 378.681 335.16C378.819 335.091 379.541 336.397 380.719 337.772C381.896 339.147 383.054 340.107 382.964 340.236Z" fill="#263238"/>
<path d="M395.242 330.916C394.519 331.862 393.667 332.701 392.71 333.409C391.858 334.241 390.892 334.947 389.84 335.506C390.563 334.56 391.416 333.721 392.373 333.013C393.223 332.179 394.189 331.472 395.242 330.916Z" fill="#263238"/>
<path d="M369.974 348.912C368.284 348.137 366.941 346.762 366.205 345.054C366.324 344.975 367.066 345.924 368.105 346.973C369.143 348.022 370.063 348.813 369.974 348.912Z" fill="#263238"/>
<path d="M397.429 322.101C395.729 323.074 393.769 323.495 391.819 323.308C393.668 322.813 395.54 322.411 397.429 322.101Z" fill="#263238"/>
<path d="M388.287 311.703C388.082 312.908 387.751 314.089 387.298 315.225C386.975 316.367 386.589 317.49 386.14 318.589H386.031C386.031 318.529 386.091 318.51 386.111 318.51C386.13 318.51 386.111 318.51 386.111 318.618H386.002C386.118 317.431 386.377 316.261 386.773 315.136C387.075 313.913 387.588 312.751 388.287 311.703Z" fill="#263238"/>
<path d="M392.155 305.104C391.082 304.656 390.081 304.049 389.187 303.303C388.206 302.698 387.322 301.947 386.566 301.077C387.619 301.535 388.602 302.142 389.484 302.878C390.481 303.482 391.382 304.232 392.155 305.104Z" fill="#263238"/>
<path d="M384.241 290.561C383.942 291.542 383.443 292.452 382.776 293.232C382.241 294.106 381.534 294.863 380.699 295.458C381.142 294.546 381.701 293.695 382.361 292.925C382.878 292.056 383.51 291.26 384.241 290.561Z" fill="#263238"/>
<path d="M372.191 288.582C372.025 287.47 372.025 286.34 372.191 285.228C372.203 284.106 372.383 282.992 372.725 281.924C372.903 283.031 372.903 284.16 372.725 285.268C372.722 286.394 372.542 287.512 372.191 288.582Z" fill="#263238"/>
<path d="M367.491 310.387C367.223 309.203 367.116 307.988 367.175 306.776C367.074 305.569 367.141 304.354 367.372 303.165C367.755 305.554 367.795 307.986 367.491 310.387Z" fill="#263238"/>
<path d="M366.838 331.302C366.389 330.66 366.088 329.927 365.958 329.155C365.665 328.43 365.53 327.651 365.562 326.87C366.317 328.232 366.753 329.747 366.838 331.302Z" fill="#263238"/>
<path d="M383.499 272.268C382.713 273.169 381.86 274.009 380.946 274.781C380.155 275.678 379.291 276.508 378.364 277.264C378.902 276.171 379.66 275.201 380.59 274.414C381.398 273.503 382.389 272.771 383.499 272.268Z" fill="#263238"/>
<path d="M376.425 269.903C376.211 268.825 376.171 267.719 376.306 266.628C376.266 265.529 376.4 264.431 376.702 263.373C376.91 264.452 376.95 265.557 376.821 266.648C376.855 267.747 376.721 268.844 376.425 269.903Z" fill="#263238"/>
<path d="M393.758 267.548C391.899 266.424 390.102 265.199 388.376 263.878C390.458 264.614 392.313 265.879 393.758 267.548Z" fill="#263238"/>
<path d="M389.989 279.895C389.715 278.763 389.605 277.597 389.662 276.433C389.556 275.272 389.619 274.102 389.85 272.96C390.238 275.249 390.285 277.583 389.989 279.886V279.895Z" fill="#263238"/>
<path d="M400.14 287.118C398.143 286.72 396.163 286.245 394.203 285.693C396.28 285.567 398.347 286.063 400.14 287.118Z" fill="#263238"/>
<path d="M400.832 279.757C400.483 277.83 400.483 275.856 400.832 273.93C401.092 274.876 401.189 275.86 401.119 276.838C401.197 277.821 401.1 278.809 400.832 279.757Z" fill="#263238"/>
<path d="M408.569 292.114C408.254 290.917 408.11 289.681 408.143 288.443C408.007 287.215 408.041 285.973 408.242 284.753C408.687 287.18 408.797 289.657 408.569 292.114Z" fill="#263238"/>
<path d="M402.623 296.289C402.514 296.388 401.713 295.656 400.832 294.666C399.952 293.677 399.318 292.787 399.427 292.688C399.536 292.589 400.337 293.321 401.218 294.32C402.098 295.319 402.732 296.2 402.623 296.289Z" fill="#263238"/>
<path d="M410.142 301.988C409.208 302.305 408.229 302.466 407.243 302.462C406.261 302.634 405.257 302.634 404.275 302.462C405.202 302.134 406.18 301.973 407.164 301.988C408.148 301.804 409.158 301.804 410.142 301.988Z" fill="#263238"/>
<path d="M415.801 304.876C415.382 302.729 415.299 300.53 415.554 298.357C415.985 300.503 416.068 302.704 415.801 304.876Z" fill="#263238"/>
<path d="M421.381 315.71C420.194 315.937 418.976 315.937 417.789 315.71C416.583 315.663 415.398 315.384 414.297 314.889C415.488 314.884 416.677 314.99 417.849 315.205C419.04 315.256 420.223 315.425 421.381 315.71Z" fill="#263238"/>
<path d="M430.977 310.714C430.569 312.96 429.822 315.132 428.761 317.154C428.877 316.022 429.168 314.914 429.622 313.87C429.905 312.753 430.362 311.688 430.977 310.714Z" fill="#263238"/>
<path d="M437.893 301.968C435.836 301.752 433.829 301.194 431.957 300.316C434.011 300.544 436.016 301.101 437.893 301.968Z" fill="#263238"/>
<path d="M443.453 305.282C442.864 306.143 442.139 306.901 441.306 307.528C440.582 308.278 439.744 308.909 438.823 309.398C439.406 308.53 440.132 307.767 440.97 307.142C441.693 306.394 442.532 305.766 443.453 305.282Z" fill="#263238"/>
<path d="M445.679 297.1C445.132 296.122 444.795 295.04 444.69 293.924C444.406 292.832 444.359 291.692 444.551 290.58C444.866 291.643 445.082 292.733 445.194 293.835C445.458 294.906 445.62 295.999 445.679 297.1Z" fill="#263238"/>
<path d="M456.265 295.22C454.23 297.252 452.172 299.261 450.092 301.246C451.663 298.793 453.775 296.732 456.265 295.22Z" fill="#263238"/>
<path d="M457.314 291.431C456.178 291.271 455.074 290.937 454.039 290.442C452.941 290.119 451.9 289.629 450.952 288.988C452.084 289.152 453.185 289.485 454.217 289.977C455.316 290.306 456.359 290.796 457.314 291.431Z" fill="#263238"/>
<path d="M456.305 287.365C455.801 286.544 455.45 285.639 455.266 284.694C454.92 283.793 454.735 282.839 454.722 281.874C455.208 282.699 455.543 283.603 455.711 284.545C456.068 285.445 456.269 286.398 456.305 287.365Z" fill="#263238"/>
<path d="M400.921 315.868C400.802 315.957 399.932 314.978 399.061 313.692C398.434 312.961 397.945 312.123 397.617 311.218C398.361 311.827 398.991 312.564 399.477 313.395C400.095 314.131 400.583 314.968 400.921 315.868Z" fill="#263238"/>
<path d="M476.349 365.711C476.307 365.573 476.28 365.43 476.27 365.286C476.23 364.989 476.171 364.573 476.092 364.039C475.953 362.921 475.735 361.309 475.468 359.251C474.904 355.096 474.103 349.07 472.906 341.66C471.709 334.25 470.116 325.455 467.85 315.799C467.618 314.587 467.222 313.412 466.673 312.306C466.051 311.216 465.248 310.239 464.298 309.417C462.283 307.749 459.707 306.914 457.096 307.083C455.764 307.157 454.463 307.511 453.277 308.121C452.086 308.793 450.951 309.561 449.884 310.417L443.077 315.472C433.916 322.348 425.338 329.086 417.681 335.408C410.023 341.729 403.345 347.646 397.755 352.662C394.926 355.096 391.908 357.045 388.851 357.361C387.449 357.52 386.029 357.347 384.706 356.857C383.605 356.441 382.569 355.872 381.629 355.165C380.342 354.186 379.15 353.09 378.067 351.89L377.226 350.96C377.124 350.857 377.031 350.744 376.949 350.624C377.063 350.71 377.166 350.81 377.256 350.92L378.136 351.821C379.25 352.981 380.458 354.047 381.748 355.006C382.683 355.681 383.704 356.227 384.785 356.629C386.078 357.088 387.46 357.241 388.821 357.074C391.789 356.748 394.757 354.818 397.528 352.385C403.078 347.349 409.736 341.363 417.394 335.041C425.051 328.72 433.609 321.933 442.78 315.057L449.587 310.001C450.68 309.131 451.841 308.35 453.06 307.666C454.306 307.023 455.675 306.652 457.076 306.578C459.815 306.405 462.516 307.287 464.625 309.042C465.624 309.901 466.465 310.929 467.108 312.079C467.675 313.222 468.084 314.437 468.325 315.69C470.571 325.376 472.114 334.191 473.272 341.601C474.429 349.011 475.171 355.056 475.676 359.221C475.903 361.289 476.082 362.901 476.21 364.029C476.21 364.564 476.299 365.019 476.329 365.286C476.349 365.427 476.355 365.569 476.349 365.711Z" fill="#263238"/>
<path d="M487.904 365.157C487.584 365.256 487.251 365.309 486.915 365.315C486.272 365.385 485.342 365.464 484.194 365.543C481.889 365.701 478.713 365.87 475.201 366.018L466.208 366.404L463.477 366.503C463.149 366.541 462.817 366.541 462.488 366.503C462.808 366.397 463.141 366.337 463.477 366.325C464.12 366.245 465.05 366.156 466.198 366.057C468.503 365.87 471.679 365.682 475.191 365.523L484.194 365.197L486.925 365.137C487.251 365.103 487.58 365.11 487.904 365.157Z" fill="#263238"/>
<path d="M462.547 316.739C460.295 320.406 457.359 323.606 453.9 326.167C453.802 326.048 455.879 324.119 458.293 321.517C460.707 318.915 462.399 316.65 462.547 316.739Z" fill="#263238"/>
<path d="M463.507 319.746C462.173 320.764 460.764 321.68 459.292 322.487C457.909 323.448 456.453 324.301 454.939 325.039C456.163 323.877 457.534 322.88 459.015 322.071C460.406 321.106 461.916 320.325 463.507 319.746Z" fill="#263238"/>
<path d="M546.859 367.71C546.659 367.732 546.456 367.732 546.256 367.71L544.515 367.611L538.183 367.007L517.317 364.831C509.165 363.98 501.805 363.03 496.452 362.763C493.781 362.624 491.604 362.634 490.111 362.694L488.389 362.763C488.185 362.788 487.979 362.788 487.776 362.763C487.974 362.714 488.176 362.681 488.379 362.664C488.765 362.605 489.368 362.555 490.101 362.486C492.221 362.347 494.348 362.317 496.472 362.397C501.854 362.575 509.225 363.465 517.367 364.316L538.232 366.621L544.554 367.383L546.266 367.611C546.467 367.62 546.666 367.654 546.859 367.71Z" fill="#455A64"/>
<path d="M545.603 378.771C545.464 378.771 545.91 373.824 546.592 367.68C547.275 361.536 547.967 356.639 548.106 356.659C548.244 356.679 547.799 361.605 547.117 367.739C546.434 373.873 545.741 378.781 545.603 378.771Z" fill="#455A64"/>
</g>
<defs>
<filter id="filter0_d_1_30" x="0" y="0" width="570.967" height="389.61" filterUnits="userSpaceOnUse" color-interpolation-filters="sRGB">
<feFlood flood-opacity="0" result="BackgroundImageFix"/>
<feColorMatrix in="SourceAlpha" type="matrix" values="0 0 0 0 0 0 0 0 0 0 0 0 0 0 0 0 0 0 127 0" result="hardAlpha"/>
<feOffset dy="4"/>
<feGaussianBlur stdDeviation="2"/>
<feComposite in2="hardAlpha" operator="out"/>
<feColorMatrix type="matrix" values="0 0 0 0 0 0 0 0 0 0 0 0 0 0 0 0 0 0 0.25 0"/>
<feBlend mode="normal" in2="BackgroundImageFix" result="effect1_dropShadow_1_30"/>
<feBlend mode="normal" in="SourceGraphic" in2="effect1_dropShadow_1_30" result="shape"/>
</filter>
</defs>
</svg>
