<svg width="128" height="104" viewBox="0 0 128 104" fill="none" xmlns="http://www.w3.org/2000/svg">
<g clip-path="url(#clip0_4_21)">
<path fill-rule="evenodd" clip-rule="evenodd" d="M31.4178 75.7625C34.4941 75.7625 36.9486 76.5331 38.7829 78.0759C40.6172 79.618 41.6257 81.6994 41.814 84.3159H35.5656C35.4732 83.2874 35.0463 82.4694 34.2857 81.8624C33.5229 81.2541 32.5044 80.9517 31.2316 80.9517C30.0498 80.9517 29.1416 81.1686 28.5042 81.606C27.8667 82.0413 27.5487 82.6504 27.5487 83.4282C27.5487 84.3009 27.9849 84.9631 28.853 85.4156C29.7239 85.8666 31.0762 86.327 32.9105 86.7946C34.7748 87.2607 36.3133 87.7455 37.5252 88.244C38.7371 88.7424 39.7842 89.5124 40.6702 90.5567C41.5555 91.601 42.0146 92.98 42.0454 94.6938C42.0454 96.1884 41.6335 97.5294 40.8106 98.7145C39.9869 99.8974 38.8058 100.826 37.2674 101.495C35.7289 102.165 33.9347 102.5 31.8841 102.5C29.7698 102.5 27.8746 102.117 26.1979 101.355C24.519 100.592 23.1897 99.5555 22.2106 98.2469C21.2322 96.9383 20.6972 95.4889 20.6027 93.8987H27.1763C27.3002 94.897 27.7894 95.723 28.6446 96.3773C29.4983 97.0316 30.5627 97.3584 31.8368 97.3584C33.0795 97.3584 34.0522 97.1092 34.7505 96.6107C35.4503 96.113 35.7991 95.4738 35.7991 94.6938C35.7991 93.8527 35.3722 93.2214 34.517 92.8012C33.6632 92.3789 32.3038 91.9206 30.4387 91.4222C28.5121 90.9546 26.9356 90.4712 25.7087 89.9728C24.4796 89.4743 23.4232 88.7101 22.5372 87.683C21.6512 86.6538 21.2093 85.2676 21.2093 83.5209C21.2093 82.0887 21.6211 80.7801 22.4441 79.5957C23.2678 78.4106 24.4488 77.4769 25.9873 76.7903C27.5258 76.1051 29.335 75.7625 31.4178 75.7625ZM70.0143 75.7627C71.9395 75.7627 73.6255 76.1528 75.0709 76.9306C76.5163 77.7106 77.6737 78.6917 78.5439 79.8747V76.1829H85.1161V102.08H78.5439V98.2924C77.7059 99.5077 76.5471 100.514 75.0709 101.307C73.5954 102.102 71.8944 102.5 69.967 102.5C67.7918 102.5 65.8114 101.939 64.0244 100.816C62.2359 99.6959 60.8228 98.1136 59.7814 96.0731C58.74 94.0318 58.2207 91.6868 58.2207 89.0372C58.2207 86.42 58.74 84.0993 59.7814 82.0717C60.8228 80.0478 62.2359 78.4906 64.0244 77.3989C65.8114 76.3086 67.8068 75.7627 70.0143 75.7627ZM115.275 75.7629C117.729 75.7629 119.929 76.2915 121.871 77.3509C123.811 78.4103 125.32 79.915 126.393 81.8629C127.465 83.81 128 86.0452 128 88.5712C128 89.5049 127.937 90.346 127.814 91.0951H108.935C109.091 92.9647 109.744 94.4292 110.893 95.4886C112.042 96.548 113.458 97.0773 115.134 97.0773C117.558 97.0773 119.284 96.0344 120.308 93.9465H127.348C126.602 96.4395 125.172 98.4886 123.059 100.094C120.946 101.699 118.351 102.5 115.275 102.5C112.788 102.5 110.559 101.946 108.585 100.841C106.612 99.7341 105.074 98.169 103.97 96.1429C102.868 94.1175 102.316 91.7796 102.316 89.13C102.316 86.4524 102.859 84.0995 103.947 82.0719C105.034 80.0479 106.557 78.49 108.516 77.3983C110.474 76.3087 112.727 75.7629 115.275 75.7629ZM18.8786 69.4045V74.7338H6.52493V82.9145H17.4805V88.1031H6.52493V96.7499H18.8786V102.079H0V69.4045H18.8786ZM52.2079 69.7793V76.1831H57.9872V81.5583H52.2079V94.0873C52.2079 94.9585 52.4163 95.5898 52.836 95.9798C53.2564 96.3698 53.9626 96.5638 54.9582 96.5638H57.9872V102.079H53.8846C48.3839 102.079 45.6335 99.3994 45.6335 94.0392V81.5583H42.5573V76.1831H45.6335V69.7793H52.2079ZM96.3052 69.7793V76.1831H102.085V81.5583H96.3052V94.0873C96.3052 94.9585 96.5136 95.5898 96.9333 95.9798C97.3538 96.3698 98.06 96.5638 99.0555 96.5638H102.085V102.079H97.9819C92.4812 102.079 89.7308 99.3994 89.7308 94.0392V81.5583H86.6546V76.1831H89.7308V69.7793H96.3052ZM71.691 81.513C70.4791 81.513 69.3618 81.8074 68.3361 82.4007C67.3097 82.9925 66.4789 83.858 65.8414 84.9935C65.204 86.1327 64.886 87.4794 64.886 89.0372C64.886 90.5965 65.204 91.9583 65.8414 93.1283C66.4789 94.2962 67.3176 95.1918 68.3583 95.8159C69.3997 96.4401 70.5113 96.7496 71.691 96.7496C72.9036 96.7496 74.0374 96.4473 75.096 95.8389C76.1503 95.232 76.9904 94.3594 77.6128 93.2217C78.2331 92.084 78.5439 90.7208 78.5439 89.1306C78.5439 87.5418 78.2331 86.1786 77.6128 85.0409C76.9904 83.9033 76.1503 83.0306 75.096 82.4237C74.0374 81.8153 72.9036 81.513 71.691 81.513ZM115.088 81.1382C113.473 81.1382 112.112 81.6287 111.009 82.6098C109.906 83.5917 109.23 84.9556 108.981 86.6995H121.242C121.209 85.0181 120.604 83.6692 119.422 82.658C118.243 81.6438 116.797 81.1382 115.088 81.1382Z" fill="#45525B"/>
<path fill-rule="evenodd" clip-rule="evenodd" d="M68.4587 0.5L91.7107 23.87V56.6913H86.3152V26.108L64.6397 4.32964L68.4587 0.5ZM53.2047 15.818L70.1193 32.823V56.6915H36.2893V32.823L53.2047 15.818ZM60.8315 8.15893L80.9205 28.3464V56.691H75.5251V30.5845L57.0233 11.9886L60.8315 8.15893Z" fill="#FF8A63"/>
</g>
<defs>
<clipPath id="clip0_4_21">
<rect width="128" height="103" fill="white" transform="translate(0 0.5)"/>
</clipPath>
</defs>
</svg>
